<svg width="36" height="36" viewBox="0 0 36 36" fill="none" xmlns="http://www.w3.org/2000/svg">
<rect width="36" height="36" rx="4" fill="#AED5B9"/>
<path d="M26.0307 12.3061L26.0447 12.3201C26.0949 12.3703 26.1395 12.4387 26.1677 12.5119C26.194 12.5804 26.2156 12.6791 26.1851 12.7812L25.6246 15.1418C25.6245 15.1422 25.6244 15.1427 25.6243 15.1431C25.1618 17.2073 23.4995 18.8045 21.3527 19.2342L26.0307 12.3061ZM26.0307 12.3061L26.0142 12.2951C25.8928 12.2141 25.7464 12.1613 25.5586 12.2082L25.5515 12.21L25.5445 12.2123L22.7622 13.1302C22.7619 13.1303 22.7617 13.1304 22.7614 13.1305C21.1335 13.6531 19.9034 14.8528 19.3195 16.3898L19.3189 16.3914L18.435 18.7787C18.2736 19.0846 18.1339 19.3899 18.0156 19.6755C17.8115 19.0659 17.5306 18.3642 17.1469 17.6604L16.4127 14.8404L16.4127 14.8403L16.4117 14.8367C15.923 13.0952 14.7596 11.712 13.2198 11.0342L13.2197 11.0342L10.5287 9.85098C10.3296 9.75387 10.1359 9.80992 10.0075 9.89553C9.83099 10.0132 9.8 10.2237 9.8 10.3582V10.3736L9.80238 10.3889L10.217 13.0551L10.2171 13.0556C10.5834 15.3764 12.1136 17.1917 14.2078 17.808C14.2079 17.808 14.208 17.8081 14.2081 17.8081L16.4065 18.465C16.9226 19.4696 17.2243 20.4876 17.3662 21.1034C14.7213 21.2895 12.4644 22.6313 11.6506 24.6514L11.6504 24.6519C11.5083 25.0074 11.5433 25.4028 11.7586 25.7258L11.7583 25.726L11.765 25.7349C11.9762 26.0165 12.2995 26.2 12.6654 26.2H23.3268C23.6927 26.2 24.016 26.0165 24.2272 25.7349L24.2274 25.735L24.2336 25.7258C24.4489 25.4028 24.4839 25.0074 24.3417 24.6519L24.3415 24.6514C23.5286 22.6335 21.2474 21.2639 18.603 21.0743C18.6971 20.7144 18.8525 20.2211 19.1095 19.6887L21.3522 19.2343L26.0307 12.3061ZM15.4342 15.1222L15.5851 15.6632C15.0379 15.187 14.3882 14.8141 13.6361 14.6089L13.6362 14.6085L13.6227 14.6058C13.4982 14.5809 13.3687 14.606 13.2642 14.6641C13.1592 14.7224 13.0609 14.8253 13.0319 14.97C13.007 15.0945 13.0322 15.224 13.0902 15.3285C13.1478 15.4322 13.2488 15.5294 13.3907 15.5597C14.3299 15.7958 15.0811 16.4099 15.6564 17.1839L14.5285 16.8615C14.5282 16.8614 14.528 16.8614 14.5277 16.8613C12.8024 16.3517 11.5193 14.8495 11.2045 12.8748C11.2045 12.8747 11.2044 12.8746 11.2044 12.8744L10.935 11.1348L12.7912 11.9628L12.7914 11.9629C14.0664 12.5297 15.0344 13.6652 15.434 15.1214L15.4342 15.1222ZM23.4082 25.0093L23.4111 25.0162L23.4144 25.0229C23.4293 25.0527 23.4336 25.091 23.3989 25.1697C23.3906 25.177 23.3814 25.1841 23.3711 25.1906C23.35 25.2041 23.3354 25.2075 23.3268 25.2075H12.6654C12.6575 25.2075 12.646 25.2047 12.6312 25.1939C12.624 25.1887 12.6177 25.1827 12.6129 25.177C12.6088 25.1723 12.6071 25.1694 12.607 25.1693L12.6018 25.1588L12.5949 25.1485C12.5837 25.1317 12.5718 25.1028 12.5678 25.0694C12.564 25.0366 12.569 25.0107 12.5777 24.9933L12.5781 24.9935L12.5834 24.9808C13.2829 23.3016 15.471 22.0525 17.9961 22.0525C20.5207 22.0525 22.7084 23.3012 23.4082 25.0093ZM24.6729 14.9304L24.6729 14.9304L24.672 14.9342C24.2759 16.6324 22.9469 17.9094 21.1541 18.2795L21.1534 18.2796L19.8057 18.5623C20.3956 17.7692 21.21 17.0704 22.3914 16.8045C22.5279 16.7763 22.635 16.6856 22.701 16.5866C22.7674 16.4869 22.8101 16.3521 22.7825 16.2143C22.755 16.0764 22.6638 15.9684 22.5641 15.9019C22.4644 15.8355 22.3296 15.7928 22.1918 15.8204L22.1918 15.8204L22.1895 15.8208C21.4774 15.9719 20.8711 16.259 20.3606 16.6177C20.8335 15.4058 21.8547 14.4871 23.1223 14.0736L23.1223 14.0737L23.1242 14.073L25.0563 13.4204L24.6729 14.9304Z" fill="#5E956D" stroke="#5E956D" stroke-width="0.4"/>
</svg>
