<svg width="24" height="24" viewBox="0 0 24 24" fill="none" xmlns="http://www.w3.org/2000/svg">
<path d="M12 20C14.2091 20 16.2091 19.1046 17.6568 17.6568C19.1046 16.2091 20 14.2091 20 12C20 9.79088 19.1046 7.79088 17.6568 6.34314C16.2091 4.89543 14.2091 4 12 4C9.79088 4 7.79088 4.89543 6.34314 6.34314C4.89543 7.79088 4 9.79088 4 12C4 14.2091 4.89543 16.2091 6.34314 17.6568C7.79088 19.1046 9.79088 20 12 20Z" stroke="#489975" stroke-width="1.5" stroke-linejoin="round"/>
<path fill-rule="evenodd" clip-rule="evenodd" d="M12 6.79999C12.5523 6.79999 13 7.24771 13 7.79999C13 8.35227 12.5523 8.79999 12 8.79999C11.4477 8.79999 11 8.35227 11 7.79999C11 7.24771 11.4477 6.79999 12 6.79999Z" fill="#489975"/>
<path d="M12.2 16V10.4H11.8H11.4" stroke="#489975" stroke-width="1.5" stroke-linecap="round" stroke-linejoin="round"/>
<path d="M10.8 16H13.6H10.8Z" fill="#489975"/>
<path d="M10.8 16H13.6" stroke="#489975" stroke-width="1.5" stroke-linecap="round" stroke-linejoin="round"/>
</svg>
