<svg width="24" height="24" viewBox="0 0 24 24" fill="none" xmlns="http://www.w3.org/2000/svg">
<path d="M9.41758 10H6.58242C5.70847 10 5 10.6964 5 11.5556L5 17.4444C5 18.3036 5.70847 19 6.58242 19H9.41758C10.2915 19 11 18.3036 11 17.4444V11.5556C11 10.6964 10.2915 10 9.41758 10Z" stroke="#353C42" stroke-width="1.5" stroke-linecap="round" stroke-linejoin="round"/>
<path d="M9.41758 4H6.58242C5.70847 4 5 4.66859 5 5.49333L5 6.50667C5 7.33141 5.70847 8 6.58242 8H9.41758C10.2915 8 11 7.33141 11 6.50667V5.49333C11 4.66859 10.2915 4 9.41758 4Z" stroke="#353C42" stroke-width="1.5" stroke-linecap="round" stroke-linejoin="round"/>
<path d="M14.5824 13H17.4176C18.2915 13 19 12.3036 19 11.4444L19 5.55556C19 4.69645 18.2915 4 17.4176 4L14.5824 4C13.7085 4 13 4.69645 13 5.55556L13 11.4444C13 12.3036 13.7085 13 14.5824 13Z" stroke="#353C42" stroke-width="1.5" stroke-linecap="round" stroke-linejoin="round"/>
<path d="M14.5824 19H17.4176C18.2915 19 19 18.3314 19 17.5067V16.4933C19 15.6686 18.2915 15 17.4176 15H14.5824C13.7085 15 13 15.6686 13 16.4933L13 17.5067C13 18.3314 13.7085 19 14.5824 19Z" stroke="#353C42" stroke-width="1.5" stroke-linecap="round" stroke-linejoin="round"/>
</svg>
