<svg width="36" height="36" viewBox="0 0 36 36" fill="none" xmlns="http://www.w3.org/2000/svg">
<rect width="36" height="36" rx="4" fill="#FAC99F"/>
<mask id="path-2-outside-1_136_338" maskUnits="userSpaceOnUse" x="6.91992" y="9.7998" width="22" height="16" fill="black">
<rect fill="white" x="6.91992" y="9.7998" width="22" height="16"/>
<path d="M11.1359 19.1038C11.2319 19.1998 11.2799 19.3198 11.2799 19.4398V19.5358C11.2799 19.5598 11.2559 19.6078 11.2559 19.6318C11.2559 19.6558 11.2319 19.6798 11.2079 19.7038L11.1359 19.7758C11.0399 19.8718 10.9199 19.9198 10.7999 19.9198C10.6799 19.9198 10.5599 19.8718 10.4639 19.7758C10.4399 19.7518 10.4159 19.7278 10.4159 19.7038C10.3919 19.6798 10.3919 19.6558 10.3679 19.6318C10.3439 19.6078 10.3439 19.5838 10.3439 19.5358V19.4398C10.3439 19.3198 10.3919 19.1998 10.4879 19.1038C10.5119 19.0798 10.5359 19.0558 10.5599 19.0558C10.5839 19.0318 10.6079 19.0318 10.6319 19.0078C10.6559 19.0078 10.6799 18.9838 10.7279 18.9838C10.8719 18.9358 11.0399 18.9838 11.1359 19.1038ZM13.1039 18.9598C13.0799 18.9598 13.0559 18.9838 13.0079 18.9838C12.9839 19.0078 12.9599 19.0078 12.9359 19.0318C12.9119 19.0558 12.8879 19.0798 12.8639 19.0798C12.7679 19.1998 12.7199 19.3198 12.7199 19.4398V19.5358C12.7199 19.5598 12.7439 19.6078 12.7439 19.6318C12.7439 19.6558 12.7679 19.6798 12.7919 19.7038C12.8159 19.7278 12.8159 19.7518 12.8399 19.7758C12.9599 19.8718 13.0799 19.9198 13.1999 19.9198C13.3199 19.9198 13.4399 19.8718 13.5359 19.7758C13.5599 19.7518 13.5839 19.7278 13.5839 19.7038C13.6079 19.6798 13.6079 19.6558 13.6319 19.6318C13.6559 19.6078 13.6559 19.5838 13.6559 19.5358V19.4398C13.6559 19.3198 13.6079 19.1998 13.5119 19.1038C13.4399 18.9838 13.2719 18.9358 13.1039 18.9598ZM15.5039 18.9598C15.4799 18.9598 15.4559 18.9838 15.4079 18.9838C15.3839 19.0078 15.3599 19.0078 15.3359 19.0318C15.3119 19.0558 15.2879 19.0798 15.2639 19.0798C15.1679 19.1998 15.1199 19.3198 15.1199 19.4398V19.5358C15.1199 19.5598 15.1439 19.6078 15.1439 19.6318C15.1439 19.6558 15.1679 19.6798 15.1919 19.7038C15.2159 19.7278 15.2159 19.7518 15.2399 19.7758C15.2639 19.7998 15.2879 19.8238 15.3119 19.8238C15.3359 19.8478 15.3599 19.8478 15.3839 19.8718C15.4079 19.8718 15.4319 19.8958 15.4799 19.8958H15.5759C15.6959 19.8958 15.8159 19.8478 15.9119 19.7518C15.9359 19.7278 15.9599 19.7038 15.9599 19.6798C15.9839 19.6558 15.9839 19.6318 16.0079 19.6078C16.0319 19.5838 16.0319 19.5598 16.0319 19.5118V19.4158C16.0319 19.2958 15.9839 19.1758 15.8879 19.0798C15.8399 18.9838 15.6719 18.9358 15.5039 18.9598ZM28.0799 15.9358V23.7598C28.0799 24.5518 27.4319 25.1998 26.6399 25.1998H18.9599C18.5999 25.1998 18.2639 25.0558 17.9999 24.8398C17.7359 25.0798 17.3999 25.1998 17.0399 25.1998H9.35992C8.56792 25.1998 7.91992 24.5518 7.91992 23.7598V18.2398C7.91992 17.5918 8.32792 17.0398 8.95192 16.8478L10.3199 16.4398V12.4798C10.3199 11.5438 11.0639 10.7998 11.9999 10.7998C12.9359 10.7998 13.6799 11.5438 13.6799 12.4798V15.4318L16.6319 14.5438C17.0639 14.3998 17.5439 14.4958 17.9039 14.7598C18.2639 15.0238 18.4799 15.4558 18.4799 15.9118V16.8718C18.5039 16.8718 18.5279 16.8478 18.5519 16.8478L19.9199 16.4398V12.4798C19.9199 11.5438 20.6639 10.7998 21.5999 10.7998C22.5359 10.7998 23.2799 11.5438 23.2799 12.4798V15.4318L26.2319 14.5438C26.6639 14.3998 27.1439 14.4958 27.5039 14.7598C27.8639 15.0478 28.0799 15.4798 28.0799 15.9358ZM11.2799 16.1518L12.7199 15.7198V12.4798C12.7199 12.0718 12.4079 11.7598 11.9999 11.7598C11.5919 11.7598 11.2799 12.0718 11.2799 12.4798V16.1518ZM15.1199 22.3198H11.2799V24.2398H15.1199V22.3198ZM17.5199 15.9358C17.5199 15.7918 17.4479 15.6478 17.3279 15.5518C17.2559 15.4798 17.1359 15.4558 17.0399 15.4558C16.9919 15.4558 16.9439 15.4558 16.8959 15.4798L9.21592 17.7838C9.02392 17.8318 8.87992 18.0238 8.87992 18.2398V23.7598C8.87992 24.0238 9.09592 24.2398 9.35992 24.2398H10.3199V21.8398C10.3199 21.5758 10.5359 21.3598 10.7999 21.3598H15.5999C15.8639 21.3598 16.0799 21.5758 16.0799 21.8398V24.2398H17.0399C17.3039 24.2398 17.5199 24.0238 17.5199 23.7598V15.9358ZM20.8799 16.1518L22.3199 15.7198V12.4798C22.3199 12.0718 22.0079 11.7598 21.5999 11.7598C21.1919 11.7598 20.8799 12.0718 20.8799 12.4798V16.1518ZM24.7199 22.3198H20.8799V24.2398H24.7199V22.3198ZM27.1199 15.9358C27.1199 15.7918 27.0479 15.6478 26.9279 15.5518C26.8559 15.4798 26.7359 15.4558 26.6399 15.4558C26.5919 15.4558 26.5439 15.4558 26.4959 15.4798L18.8159 17.7838C18.5999 17.8558 18.4799 18.0238 18.4799 18.2398V23.7598C18.4799 24.0238 18.6959 24.2398 18.9599 24.2398H19.9199V21.8398C19.9199 21.5758 20.1359 21.3598 20.3999 21.3598H25.1999C25.4639 21.3598 25.6799 21.5758 25.6799 21.8398V24.2398H26.6399C26.9039 24.2398 27.1199 24.0238 27.1199 23.7598V15.9358ZM20.0639 19.1038C19.9679 19.1998 19.9199 19.3198 19.9199 19.4398V19.5358C19.9199 19.5598 19.9439 19.6078 19.9439 19.6318C19.9439 19.6558 19.9679 19.6798 19.9919 19.7038L20.0639 19.7758C20.1119 19.8238 20.1599 19.8478 20.2079 19.8718C20.2799 19.9198 20.3279 19.9198 20.3999 19.9198H20.4959C20.5199 19.9198 20.5679 19.8958 20.5919 19.8958C20.6159 19.8958 20.6399 19.8718 20.6639 19.8478C20.6879 19.8238 20.7119 19.8238 20.7359 19.7998C20.7599 19.7758 20.7839 19.7518 20.7839 19.7278C20.8079 19.7038 20.8079 19.6798 20.8319 19.6558C20.8559 19.6318 20.8559 19.6078 20.8559 19.5598V19.4638C20.8559 19.3438 20.8079 19.2238 20.7119 19.1278C20.5679 18.9118 20.2319 18.9118 20.0639 19.1038ZM22.4639 19.1038C22.3679 19.1998 22.3199 19.3198 22.3199 19.4398V19.5358C22.3199 19.5598 22.3439 19.6078 22.3439 19.6318C22.3439 19.6558 22.3679 19.6798 22.3919 19.7038L22.4639 19.7758C22.5119 19.8238 22.5599 19.8478 22.6079 19.8718C22.6799 19.9198 22.7279 19.9198 22.7999 19.9198H22.8959C22.9199 19.9198 22.9679 19.8958 22.9919 19.8958C23.0159 19.8958 23.0399 19.8718 23.0639 19.8478C23.0879 19.8238 23.1119 19.8238 23.1359 19.7998C23.1599 19.7758 23.1839 19.7518 23.1839 19.7278C23.2079 19.7038 23.2079 19.6798 23.2319 19.6558C23.2559 19.6318 23.2559 19.6078 23.2559 19.5598V19.4638C23.2559 19.3438 23.2079 19.2238 23.1119 19.1278C22.9679 18.9118 22.6319 18.9118 22.4639 19.1038ZM25.6319 19.2478C25.6319 19.2238 25.6079 19.1998 25.5839 19.1758C25.5599 19.1518 25.5599 19.1278 25.5359 19.1038C25.5119 19.0798 25.4879 19.0558 25.4639 19.0558C25.4399 19.0558 25.4159 19.0318 25.3919 19.0078C25.3679 19.0078 25.3439 18.9838 25.2959 18.9838C25.1279 18.9598 24.9839 19.0078 24.8639 19.1038C24.8399 19.1278 24.8159 19.1518 24.8159 19.1758C24.7919 19.1998 24.7919 19.2238 24.7679 19.2478C24.7439 19.2718 24.7439 19.2958 24.7439 19.3438V19.4398C24.7439 19.5598 24.7919 19.6798 24.8879 19.7758C24.9599 19.8718 25.0799 19.9198 25.1999 19.9198C25.3199 19.9198 25.4399 19.8718 25.5359 19.7758C25.6319 19.6798 25.6799 19.5598 25.6799 19.4398V19.3438C25.6559 19.3198 25.6559 19.2718 25.6319 19.2478Z"/>
</mask>
<path d="M11.1359 19.1038C11.2319 19.1998 11.2799 19.3198 11.2799 19.4398V19.5358C11.2799 19.5598 11.2559 19.6078 11.2559 19.6318C11.2559 19.6558 11.2319 19.6798 11.2079 19.7038L11.1359 19.7758C11.0399 19.8718 10.9199 19.9198 10.7999 19.9198C10.6799 19.9198 10.5599 19.8718 10.4639 19.7758C10.4399 19.7518 10.4159 19.7278 10.4159 19.7038C10.3919 19.6798 10.3919 19.6558 10.3679 19.6318C10.3439 19.6078 10.3439 19.5838 10.3439 19.5358V19.4398C10.3439 19.3198 10.3919 19.1998 10.4879 19.1038C10.5119 19.0798 10.5359 19.0558 10.5599 19.0558C10.5839 19.0318 10.6079 19.0318 10.6319 19.0078C10.6559 19.0078 10.6799 18.9838 10.7279 18.9838C10.8719 18.9358 11.0399 18.9838 11.1359 19.1038ZM13.1039 18.9598C13.0799 18.9598 13.0559 18.9838 13.0079 18.9838C12.9839 19.0078 12.9599 19.0078 12.9359 19.0318C12.9119 19.0558 12.8879 19.0798 12.8639 19.0798C12.7679 19.1998 12.7199 19.3198 12.7199 19.4398V19.5358C12.7199 19.5598 12.7439 19.6078 12.7439 19.6318C12.7439 19.6558 12.7679 19.6798 12.7919 19.7038C12.8159 19.7278 12.8159 19.7518 12.8399 19.7758C12.9599 19.8718 13.0799 19.9198 13.1999 19.9198C13.3199 19.9198 13.4399 19.8718 13.5359 19.7758C13.5599 19.7518 13.5839 19.7278 13.5839 19.7038C13.6079 19.6798 13.6079 19.6558 13.6319 19.6318C13.6559 19.6078 13.6559 19.5838 13.6559 19.5358V19.4398C13.6559 19.3198 13.6079 19.1998 13.5119 19.1038C13.4399 18.9838 13.2719 18.9358 13.1039 18.9598ZM15.5039 18.9598C15.4799 18.9598 15.4559 18.9838 15.4079 18.9838C15.3839 19.0078 15.3599 19.0078 15.3359 19.0318C15.3119 19.0558 15.2879 19.0798 15.2639 19.0798C15.1679 19.1998 15.1199 19.3198 15.1199 19.4398V19.5358C15.1199 19.5598 15.1439 19.6078 15.1439 19.6318C15.1439 19.6558 15.1679 19.6798 15.1919 19.7038C15.2159 19.7278 15.2159 19.7518 15.2399 19.7758C15.2639 19.7998 15.2879 19.8238 15.3119 19.8238C15.3359 19.8478 15.3599 19.8478 15.3839 19.8718C15.4079 19.8718 15.4319 19.8958 15.4799 19.8958H15.5759C15.6959 19.8958 15.8159 19.8478 15.9119 19.7518C15.9359 19.7278 15.9599 19.7038 15.9599 19.6798C15.9839 19.6558 15.9839 19.6318 16.0079 19.6078C16.0319 19.5838 16.0319 19.5598 16.0319 19.5118V19.4158C16.0319 19.2958 15.9839 19.1758 15.8879 19.0798C15.8399 18.9838 15.6719 18.9358 15.5039 18.9598ZM28.0799 15.9358V23.7598C28.0799 24.5518 27.4319 25.1998 26.6399 25.1998H18.9599C18.5999 25.1998 18.2639 25.0558 17.9999 24.8398C17.7359 25.0798 17.3999 25.1998 17.0399 25.1998H9.35992C8.56792 25.1998 7.91992 24.5518 7.91992 23.7598V18.2398C7.91992 17.5918 8.32792 17.0398 8.95192 16.8478L10.3199 16.4398V12.4798C10.3199 11.5438 11.0639 10.7998 11.9999 10.7998C12.9359 10.7998 13.6799 11.5438 13.6799 12.4798V15.4318L16.6319 14.5438C17.0639 14.3998 17.5439 14.4958 17.9039 14.7598C18.2639 15.0238 18.4799 15.4558 18.4799 15.9118V16.8718C18.5039 16.8718 18.5279 16.8478 18.5519 16.8478L19.9199 16.4398V12.4798C19.9199 11.5438 20.6639 10.7998 21.5999 10.7998C22.5359 10.7998 23.2799 11.5438 23.2799 12.4798V15.4318L26.2319 14.5438C26.6639 14.3998 27.1439 14.4958 27.5039 14.7598C27.8639 15.0478 28.0799 15.4798 28.0799 15.9358ZM11.2799 16.1518L12.7199 15.7198V12.4798C12.7199 12.0718 12.4079 11.7598 11.9999 11.7598C11.5919 11.7598 11.2799 12.0718 11.2799 12.4798V16.1518ZM15.1199 22.3198H11.2799V24.2398H15.1199V22.3198ZM17.5199 15.9358C17.5199 15.7918 17.4479 15.6478 17.3279 15.5518C17.2559 15.4798 17.1359 15.4558 17.0399 15.4558C16.9919 15.4558 16.9439 15.4558 16.8959 15.4798L9.21592 17.7838C9.02392 17.8318 8.87992 18.0238 8.87992 18.2398V23.7598C8.87992 24.0238 9.09592 24.2398 9.35992 24.2398H10.3199V21.8398C10.3199 21.5758 10.5359 21.3598 10.7999 21.3598H15.5999C15.8639 21.3598 16.0799 21.5758 16.0799 21.8398V24.2398H17.0399C17.3039 24.2398 17.5199 24.0238 17.5199 23.7598V15.9358ZM20.8799 16.1518L22.3199 15.7198V12.4798C22.3199 12.0718 22.0079 11.7598 21.5999 11.7598C21.1919 11.7598 20.8799 12.0718 20.8799 12.4798V16.1518ZM24.7199 22.3198H20.8799V24.2398H24.7199V22.3198ZM27.1199 15.9358C27.1199 15.7918 27.0479 15.6478 26.9279 15.5518C26.8559 15.4798 26.7359 15.4558 26.6399 15.4558C26.5919 15.4558 26.5439 15.4558 26.4959 15.4798L18.8159 17.7838C18.5999 17.8558 18.4799 18.0238 18.4799 18.2398V23.7598C18.4799 24.0238 18.6959 24.2398 18.9599 24.2398H19.9199V21.8398C19.9199 21.5758 20.1359 21.3598 20.3999 21.3598H25.1999C25.4639 21.3598 25.6799 21.5758 25.6799 21.8398V24.2398H26.6399C26.9039 24.2398 27.1199 24.0238 27.1199 23.7598V15.9358ZM20.0639 19.1038C19.9679 19.1998 19.9199 19.3198 19.9199 19.4398V19.5358C19.9199 19.5598 19.9439 19.6078 19.9439 19.6318C19.9439 19.6558 19.9679 19.6798 19.9919 19.7038L20.0639 19.7758C20.1119 19.8238 20.1599 19.8478 20.2079 19.8718C20.2799 19.9198 20.3279 19.9198 20.3999 19.9198H20.4959C20.5199 19.9198 20.5679 19.8958 20.5919 19.8958C20.6159 19.8958 20.6399 19.8718 20.6639 19.8478C20.6879 19.8238 20.7119 19.8238 20.7359 19.7998C20.7599 19.7758 20.7839 19.7518 20.7839 19.7278C20.8079 19.7038 20.8079 19.6798 20.8319 19.6558C20.8559 19.6318 20.8559 19.6078 20.8559 19.5598V19.4638C20.8559 19.3438 20.8079 19.2238 20.7119 19.1278C20.5679 18.9118 20.2319 18.9118 20.0639 19.1038ZM22.4639 19.1038C22.3679 19.1998 22.3199 19.3198 22.3199 19.4398V19.5358C22.3199 19.5598 22.3439 19.6078 22.3439 19.6318C22.3439 19.6558 22.3679 19.6798 22.3919 19.7038L22.4639 19.7758C22.5119 19.8238 22.5599 19.8478 22.6079 19.8718C22.6799 19.9198 22.7279 19.9198 22.7999 19.9198H22.8959C22.9199 19.9198 22.9679 19.8958 22.9919 19.8958C23.0159 19.8958 23.0399 19.8718 23.0639 19.8478C23.0879 19.8238 23.1119 19.8238 23.1359 19.7998C23.1599 19.7758 23.1839 19.7518 23.1839 19.7278C23.2079 19.7038 23.2079 19.6798 23.2319 19.6558C23.2559 19.6318 23.2559 19.6078 23.2559 19.5598V19.4638C23.2559 19.3438 23.2079 19.2238 23.1119 19.1278C22.9679 18.9118 22.6319 18.9118 22.4639 19.1038ZM25.6319 19.2478C25.6319 19.2238 25.6079 19.1998 25.5839 19.1758C25.5599 19.1518 25.5599 19.1278 25.5359 19.1038C25.5119 19.0798 25.4879 19.0558 25.4639 19.0558C25.4399 19.0558 25.4159 19.0318 25.3919 19.0078C25.3679 19.0078 25.3439 18.9838 25.2959 18.9838C25.1279 18.9598 24.9839 19.0078 24.8639 19.1038C24.8399 19.1278 24.8159 19.1518 24.8159 19.1758C24.7919 19.1998 24.7919 19.2238 24.7679 19.2478C24.7439 19.2718 24.7439 19.2958 24.7439 19.3438V19.4398C24.7439 19.5598 24.7919 19.6798 24.8879 19.7758C24.9599 19.8718 25.0799 19.9198 25.1999 19.9198C25.3199 19.9198 25.4399 19.8718 25.5359 19.7758C25.6319 19.6798 25.6799 19.5598 25.6799 19.4398V19.3438C25.6559 19.3198 25.6559 19.2718 25.6319 19.2478Z" fill="#8F6139"/>
<path d="M11.1359 19.1038C11.2319 19.1998 11.2799 19.3198 11.2799 19.4398V19.5358C11.2799 19.5598 11.2559 19.6078 11.2559 19.6318C11.2559 19.6558 11.2319 19.6798 11.2079 19.7038L11.1359 19.7758C11.0399 19.8718 10.9199 19.9198 10.7999 19.9198C10.6799 19.9198 10.5599 19.8718 10.4639 19.7758C10.4399 19.7518 10.4159 19.7278 10.4159 19.7038C10.3919 19.6798 10.3919 19.6558 10.3679 19.6318C10.3439 19.6078 10.3439 19.5838 10.3439 19.5358V19.4398C10.3439 19.3198 10.3919 19.1998 10.4879 19.1038C10.5119 19.0798 10.5359 19.0558 10.5599 19.0558C10.5839 19.0318 10.6079 19.0318 10.6319 19.0078C10.6559 19.0078 10.6799 18.9838 10.7279 18.9838C10.8719 18.9358 11.0399 18.9838 11.1359 19.1038ZM13.1039 18.9598C13.0799 18.9598 13.0559 18.9838 13.0079 18.9838C12.9839 19.0078 12.9599 19.0078 12.9359 19.0318C12.9119 19.0558 12.8879 19.0798 12.8639 19.0798C12.7679 19.1998 12.7199 19.3198 12.7199 19.4398V19.5358C12.7199 19.5598 12.7439 19.6078 12.7439 19.6318C12.7439 19.6558 12.7679 19.6798 12.7919 19.7038C12.8159 19.7278 12.8159 19.7518 12.8399 19.7758C12.9599 19.8718 13.0799 19.9198 13.1999 19.9198C13.3199 19.9198 13.4399 19.8718 13.5359 19.7758C13.5599 19.7518 13.5839 19.7278 13.5839 19.7038C13.6079 19.6798 13.6079 19.6558 13.6319 19.6318C13.6559 19.6078 13.6559 19.5838 13.6559 19.5358V19.4398C13.6559 19.3198 13.6079 19.1998 13.5119 19.1038C13.4399 18.9838 13.2719 18.9358 13.1039 18.9598ZM15.5039 18.9598C15.4799 18.9598 15.4559 18.9838 15.4079 18.9838C15.3839 19.0078 15.3599 19.0078 15.3359 19.0318C15.3119 19.0558 15.2879 19.0798 15.2639 19.0798C15.1679 19.1998 15.1199 19.3198 15.1199 19.4398V19.5358C15.1199 19.5598 15.1439 19.6078 15.1439 19.6318C15.1439 19.6558 15.1679 19.6798 15.1919 19.7038C15.2159 19.7278 15.2159 19.7518 15.2399 19.7758C15.2639 19.7998 15.2879 19.8238 15.3119 19.8238C15.3359 19.8478 15.3599 19.8478 15.3839 19.8718C15.4079 19.8718 15.4319 19.8958 15.4799 19.8958H15.5759C15.6959 19.8958 15.8159 19.8478 15.9119 19.7518C15.9359 19.7278 15.9599 19.7038 15.9599 19.6798C15.9839 19.6558 15.9839 19.6318 16.0079 19.6078C16.0319 19.5838 16.0319 19.5598 16.0319 19.5118V19.4158C16.0319 19.2958 15.9839 19.1758 15.8879 19.0798C15.8399 18.9838 15.6719 18.9358 15.5039 18.9598ZM28.0799 15.9358V23.7598C28.0799 24.5518 27.4319 25.1998 26.6399 25.1998H18.9599C18.5999 25.1998 18.2639 25.0558 17.9999 24.8398C17.7359 25.0798 17.3999 25.1998 17.0399 25.1998H9.35992C8.56792 25.1998 7.91992 24.5518 7.91992 23.7598V18.2398C7.91992 17.5918 8.32792 17.0398 8.95192 16.8478L10.3199 16.4398V12.4798C10.3199 11.5438 11.0639 10.7998 11.9999 10.7998C12.9359 10.7998 13.6799 11.5438 13.6799 12.4798V15.4318L16.6319 14.5438C17.0639 14.3998 17.5439 14.4958 17.9039 14.7598C18.2639 15.0238 18.4799 15.4558 18.4799 15.9118V16.8718C18.5039 16.8718 18.5279 16.8478 18.5519 16.8478L19.9199 16.4398V12.4798C19.9199 11.5438 20.6639 10.7998 21.5999 10.7998C22.5359 10.7998 23.2799 11.5438 23.2799 12.4798V15.4318L26.2319 14.5438C26.6639 14.3998 27.1439 14.4958 27.5039 14.7598C27.8639 15.0478 28.0799 15.4798 28.0799 15.9358ZM11.2799 16.1518L12.7199 15.7198V12.4798C12.7199 12.0718 12.4079 11.7598 11.9999 11.7598C11.5919 11.7598 11.2799 12.0718 11.2799 12.4798V16.1518ZM15.1199 22.3198H11.2799V24.2398H15.1199V22.3198ZM17.5199 15.9358C17.5199 15.7918 17.4479 15.6478 17.3279 15.5518C17.2559 15.4798 17.1359 15.4558 17.0399 15.4558C16.9919 15.4558 16.9439 15.4558 16.8959 15.4798L9.21592 17.7838C9.02392 17.8318 8.87992 18.0238 8.87992 18.2398V23.7598C8.87992 24.0238 9.09592 24.2398 9.35992 24.2398H10.3199V21.8398C10.3199 21.5758 10.5359 21.3598 10.7999 21.3598H15.5999C15.8639 21.3598 16.0799 21.5758 16.0799 21.8398V24.2398H17.0399C17.3039 24.2398 17.5199 24.0238 17.5199 23.7598V15.9358ZM20.8799 16.1518L22.3199 15.7198V12.4798C22.3199 12.0718 22.0079 11.7598 21.5999 11.7598C21.1919 11.7598 20.8799 12.0718 20.8799 12.4798V16.1518ZM24.7199 22.3198H20.8799V24.2398H24.7199V22.3198ZM27.1199 15.9358C27.1199 15.7918 27.0479 15.6478 26.9279 15.5518C26.8559 15.4798 26.7359 15.4558 26.6399 15.4558C26.5919 15.4558 26.5439 15.4558 26.4959 15.4798L18.8159 17.7838C18.5999 17.8558 18.4799 18.0238 18.4799 18.2398V23.7598C18.4799 24.0238 18.6959 24.2398 18.9599 24.2398H19.9199V21.8398C19.9199 21.5758 20.1359 21.3598 20.3999 21.3598H25.1999C25.4639 21.3598 25.6799 21.5758 25.6799 21.8398V24.2398H26.6399C26.9039 24.2398 27.1199 24.0238 27.1199 23.7598V15.9358ZM20.0639 19.1038C19.9679 19.1998 19.9199 19.3198 19.9199 19.4398V19.5358C19.9199 19.5598 19.9439 19.6078 19.9439 19.6318C19.9439 19.6558 19.9679 19.6798 19.9919 19.7038L20.0639 19.7758C20.1119 19.8238 20.1599 19.8478 20.2079 19.8718C20.2799 19.9198 20.3279 19.9198 20.3999 19.9198H20.4959C20.5199 19.9198 20.5679 19.8958 20.5919 19.8958C20.6159 19.8958 20.6399 19.8718 20.6639 19.8478C20.6879 19.8238 20.7119 19.8238 20.7359 19.7998C20.7599 19.7758 20.7839 19.7518 20.7839 19.7278C20.8079 19.7038 20.8079 19.6798 20.8319 19.6558C20.8559 19.6318 20.8559 19.6078 20.8559 19.5598V19.4638C20.8559 19.3438 20.8079 19.2238 20.7119 19.1278C20.5679 18.9118 20.2319 18.9118 20.0639 19.1038ZM22.4639 19.1038C22.3679 19.1998 22.3199 19.3198 22.3199 19.4398V19.5358C22.3199 19.5598 22.3439 19.6078 22.3439 19.6318C22.3439 19.6558 22.3679 19.6798 22.3919 19.7038L22.4639 19.7758C22.5119 19.8238 22.5599 19.8478 22.6079 19.8718C22.6799 19.9198 22.7279 19.9198 22.7999 19.9198H22.8959C22.9199 19.9198 22.9679 19.8958 22.9919 19.8958C23.0159 19.8958 23.0399 19.8718 23.0639 19.8478C23.0879 19.8238 23.1119 19.8238 23.1359 19.7998C23.1599 19.7758 23.1839 19.7518 23.1839 19.7278C23.2079 19.7038 23.2079 19.6798 23.2319 19.6558C23.2559 19.6318 23.2559 19.6078 23.2559 19.5598V19.4638C23.2559 19.3438 23.2079 19.2238 23.1119 19.1278C22.9679 18.9118 22.6319 18.9118 22.4639 19.1038ZM25.6319 19.2478C25.6319 19.2238 25.6079 19.1998 25.5839 19.1758C25.5599 19.1518 25.5599 19.1278 25.5359 19.1038C25.5119 19.0798 25.4879 19.0558 25.4639 19.0558C25.4399 19.0558 25.4159 19.0318 25.3919 19.0078C25.3679 19.0078 25.3439 18.9838 25.2959 18.9838C25.1279 18.9598 24.9839 19.0078 24.8639 19.1038C24.8399 19.1278 24.8159 19.1518 24.8159 19.1758C24.7919 19.1998 24.7919 19.2238 24.7679 19.2478C24.7439 19.2718 24.7439 19.2958 24.7439 19.3438V19.4398C24.7439 19.5598 24.7919 19.6798 24.8879 19.7758C24.9599 19.8718 25.0799 19.9198 25.1999 19.9198C25.3199 19.9198 25.4399 19.8718 25.5359 19.7758C25.6319 19.6798 25.6799 19.5598 25.6799 19.4398V19.3438C25.6559 19.3198 25.6559 19.2718 25.6319 19.2478Z" stroke="#8F6139" stroke-width="0.4" mask="url(#path-2-outside-1_136_338)"/>
</svg>
