<svg width="24" height="24" viewBox="0 0 24 24" fill="none" xmlns="http://www.w3.org/2000/svg">
<path d="M15.203 19.4788C10.0104 18.0791 5.92107 13.9898 4.52136 8.79719C3.9464 6.66418 5.79106 4.84211 8.0002 4.84211L8.6844 4.84211C9.23669 4.84211 9.67885 5.29105 9.73637 5.84033C9.82651 6.70116 10.0319 7.52767 10.3369 8.30415L8.8976 9.74347C10.0179 12.0845 11.9157 13.9823 14.2567 15.1026L15.696 13.6633C16.4725 13.9683 17.299 14.1737 18.1599 14.2638C18.7091 14.3213 19.1581 14.7635 19.1581 15.3158L19.1581 16C19.1581 18.2091 17.336 20.0538 15.203 19.4788Z" stroke="#489975" stroke-width="1.5" stroke-linecap="round" stroke-linejoin="round"/>
<path d="M16.1935 10.5682C16.1935 10.2055 16.122 9.84626 15.9832 9.51111C15.8444 9.17596 15.6409 8.87143 15.3844 8.61492C15.1279 8.35841 14.8234 8.15493 14.4882 8.0161C14.1531 7.87728 13.7938 7.80583 13.4311 7.80583" stroke="#489975" stroke-width="1.5" stroke-linecap="round" stroke-linejoin="round"/>
<path d="M18.9885 9.89476C18.9885 9.25348 18.8622 8.61847 18.6168 8.02601C18.3714 7.43354 18.0117 6.89521 17.5582 6.44175C17.1048 5.9883 16.5665 5.6286 15.974 5.38319C15.3815 5.13778 14.7465 5.01147 14.1052 5.01147" stroke="#489975" stroke-width="1.5" stroke-linecap="round" stroke-linejoin="round"/>
</svg>
