<svg width="44" height="44" viewBox="0 0 44 44" fill="none" xmlns="http://www.w3.org/2000/svg">
<rect width="44" height="44" rx="4" fill="#489975"/>
<path opacity="0.4" d="M8.95465 35.1771V14.1333C8.95465 11.4847 10.2724 10.1538 12.8947 10.1538H21.104C23.7262 10.1538 25.0307 11.4847 25.0307 14.1333V35.1771" fill="white"/>
<path d="M20.3529 18.0469H13.8302C13.2899 18.0469 12.8419 17.5989 12.8419 17.0586C12.8419 16.5183 13.2899 16.0703 13.8302 16.0703H20.3529C20.8931 16.0703 21.3412 16.5183 21.3412 17.0586C21.3412 17.5989 20.8931 18.0469 20.3529 18.0469Z" fill="white"/>
<path d="M20.3529 22.9883H13.8302C13.2899 22.9883 12.8419 22.5403 12.8419 22C12.8419 21.4597 13.2899 21.0117 13.8302 21.0117H20.3529C20.8931 21.0117 21.3412 21.4597 21.3412 22C21.3412 22.5403 20.8931 22.9883 20.3529 22.9883Z" fill="white"/>
<path d="M17.0586 36.1653C16.5183 36.1653 16.0703 35.7173 16.0703 35.1771V30.2357C16.0703 29.6954 16.5183 29.2474 17.0586 29.2474C17.5989 29.2474 18.0469 29.6954 18.0469 30.2357V35.1771C18.0469 35.7173 17.5989 36.1653 17.0586 36.1653Z" fill="white"/>
<path d="M36.4948 34.1888H33.5035V30.2357C34.7554 29.8272 35.6646 28.6544 35.6646 27.2708V24.6354C35.6646 22.9092 34.2547 21.4993 32.5285 21.4993C30.8023 21.4993 29.3923 22.9092 29.3923 24.6354V27.2708C29.3923 28.6413 30.2883 29.8008 31.5138 30.2225V34.1888H7.50519C6.96493 34.1888 6.51691 34.6368 6.51691 35.1771C6.51691 35.7174 6.96493 36.1654 7.50519 36.1654H32.4494C32.4757 36.1654 32.4889 36.1786 32.5153 36.1786C32.5416 36.1786 32.5549 36.1654 32.5812 36.1654H36.4948C37.035 36.1654 37.4831 35.7174 37.4831 35.1771C37.4831 34.6368 37.035 34.1888 36.4948 34.1888Z" fill="white"/>
</svg>
