<svg width="24" height="24" viewBox="0 0 24 24" fill="none" xmlns="http://www.w3.org/2000/svg">
<path d="M19.1333 11.9997V12C19.1333 15.9332 15.9333 19.1333 12.0001 19.1333C10.9491 19.1327 9.91124 18.8999 8.9607 18.4514C8.14165 18.0651 7.40489 17.5268 6.78884 16.8667H8.33333C8.62789 16.8667 8.86667 16.6279 8.86667 16.3333C8.86667 16.0388 8.62789 15.8 8.33333 15.8H5.3434C5.22738 15.8 5.13333 15.8941 5.13333 16.0101V19C5.13333 19.2946 5.37212 19.5333 5.66667 19.5333C5.96122 19.5333 6.2 19.2946 6.2 19V17.7963C6.89975 18.4964 7.72151 19.0651 8.62625 19.4736C9.68658 19.9522 10.8366 20.1999 12 20.2C16.5218 20.2 20.2 16.5215 20.2 12C20.2 11.1343 20.0664 10.2851 19.8024 9.47059C19.7088 9.18197 19.3945 9.04415 19.1205 9.14586C18.8423 9.24912 18.709 9.55368 18.7958 9.82523C19.0203 10.5275 19.1344 11.2611 19.1333 11.9997ZM4.19765 14.5294L4.3879 14.4677L4.19765 14.5294C4.29122 14.818 4.6055 14.9558 4.87952 14.8541C5.15768 14.7509 5.29097 14.4463 5.20416 14.1748C4.97965 13.4725 4.86559 12.7389 4.86667 12.0003V12C4.86667 8.06679 8.06679 4.86667 12 4.86667C13.0509 4.86711 14.0889 5.09987 15.0394 5.5483C15.8585 5.93471 16.5953 6.47302 17.2113 7.13333H15.6667C15.3721 7.13333 15.1333 7.37212 15.1333 7.66667C15.1333 7.96122 15.3721 8.2 15.6667 8.2H18.6566C18.7726 8.2 18.8667 8.10595 18.8667 7.98993V5C18.8667 4.70545 18.6279 4.46667 18.3333 4.46667C18.0388 4.46667 17.8 4.70545 17.8 5V6.20332C17.1003 5.50322 16.2785 4.93455 15.3738 4.52616C14.3134 4.04754 13.1634 3.8 12 3.8C7.47854 3.8 3.8 7.47854 3.8 12C3.8 12.8657 3.93359 13.7149 4.19765 14.5294Z" fill="#489975" stroke="#489975" stroke-width="0.4"/>
</svg>
