<svg width="36" height="36" viewBox="0 0 36 36" fill="none" xmlns="http://www.w3.org/2000/svg">
<rect width="36" height="36" rx="4" fill="#B0D1F4"/>
<path fill-rule="evenodd" clip-rule="evenodd" d="M15.8679 24.5786V22.2785C15.8679 21.6935 16.3448 21.2181 16.9358 21.2142H19.1003C19.6941 21.2142 20.1754 21.6907 20.1754 22.2785V22.2785V24.5857C20.1752 25.0824 20.5757 25.4884 21.0773 25.5H22.5203C23.9588 25.5 25.125 24.3455 25.125 22.9214V22.9214V16.3784C25.1173 15.8181 24.8516 15.292 24.4035 14.9498L19.4683 11.014C18.6037 10.3287 17.3747 10.3287 16.5101 11.014L11.5965 14.9569C11.1467 15.2978 10.8805 15.8248 10.875 16.3855V22.9214C10.875 24.3455 12.0412 25.5 13.4797 25.5H14.9227C15.4368 25.5 15.8535 25.0875 15.8535 24.5786V24.5786" fill="#B0D1F4"/>
<path d="M15.8679 24.5786V22.2785C15.8679 21.6935 16.3448 21.2181 16.9358 21.2142H19.1003C19.6941 21.2142 20.1754 21.6907 20.1754 22.2785V22.2785V24.5857C20.1752 25.0824 20.5757 25.4884 21.0773 25.5H22.5203C23.9588 25.5 25.125 24.3455 25.125 22.9214V22.9214V16.3784C25.1173 15.8181 24.8516 15.292 24.4035 14.9498L19.4683 11.014C18.6037 10.3287 17.3747 10.3287 16.5101 11.014L11.5965 14.9569C11.1467 15.2978 10.8805 15.8248 10.875 16.3855V22.9214C10.875 24.3455 12.0412 25.5 13.4797 25.5H14.9227C15.4368 25.5 15.8535 25.0875 15.8535 24.5786V24.5786" stroke="#183C62" stroke-width="1.5" stroke-linecap="round" stroke-linejoin="round"/>
</svg>
