<svg width="17" height="17" viewBox="0 0 17 17" fill="none" xmlns="http://www.w3.org/2000/svg">
<path d="M12.203 15.4788C7.01037 14.0791 2.92107 9.98982 1.52136 4.79719C0.946401 2.66418 2.79106 0.842114 5.0002 0.842114L5.6844 0.842114C6.23669 0.842114 6.67885 1.29105 6.73637 1.84033C6.82651 2.70116 7.03193 3.52767 7.33692 4.30415L5.8976 5.74347C7.01789 8.08446 8.91573 9.9823 11.2567 11.1026L12.696 9.66328C13.4725 9.96826 14.299 10.1737 15.1599 10.2638C15.7091 10.3213 16.1581 10.7635 16.1581 11.3158L16.1581 12C16.1581 14.2091 14.336 16.0538 12.203 15.4788Z" stroke="#489975" stroke-width="1.5" stroke-linecap="round" stroke-linejoin="round"/>
</svg>
