<svg width="34" height="34" viewBox="0 0 34 34" fill="none" xmlns="http://www.w3.org/2000/svg">
<rect width="34" height="34" rx="4" fill="#E4FFF3"/>
<path d="M12 25C12 23.3431 14.2386 22 17 22C19.7614 22 22 23.3431 22 25" stroke="#489975" stroke-width="1.5" stroke-linecap="round" stroke-linejoin="round"/>
<path d="M23 19.2495C24.7659 19.7124 26 20.7697 26 21.9999" stroke="#489975" stroke-width="1.5" stroke-linecap="round" stroke-linejoin="round"/>
<path d="M11 19.2495C9.2341 19.7124 8 20.7697 8 21.9999" stroke="#489975" stroke-width="1.5" stroke-linecap="round" stroke-linejoin="round"/>
<path d="M17 19C18.6569 19 20 17.6569 20 16C20 14.3431 18.6569 13 17 13C15.3431 13 14 14.3431 14 16C14 17.6569 15.3431 19 17 19Z" stroke="#489975" stroke-width="1.5" stroke-linecap="round" stroke-linejoin="round"/>
<path d="M23 15.2361C23.6137 14.6868 24 13.8885 24 13C24 11.3431 22.6569 10 21 10C20.2316 10 19.5308 10.2889 19 10.7639" stroke="#489975" stroke-width="1.5" stroke-linecap="round" stroke-linejoin="round"/>
<path d="M11 15.2361C10.3863 14.6868 10 13.8885 10 13C10 11.3431 11.3431 10 13 10C13.7684 10 14.4692 10.2889 15 10.7639" stroke="#489975" stroke-width="1.5" stroke-linecap="round" stroke-linejoin="round"/>
</svg>
