<svg width="34" height="34" viewBox="0 0 34 34" fill="none" xmlns="http://www.w3.org/2000/svg">
<rect width="34" height="34" rx="4" fill="#DEDFFF"/>
<mask id="path-2-inside-1_63_1574" fill="white">
<path d="M6.91943 26.1197V9.85864C6.91943 7.812 7.93772 6.78357 9.96399 6.78357H16.3075C18.3338 6.78357 19.3418 7.812 19.3418 9.85864V26.1197"/>
</mask>
<path d="M8.41943 26.1197V9.85864H5.41943V26.1197H8.41943ZM8.41943 9.85864C8.41943 9.06469 8.61624 8.74185 8.74779 8.60898C8.87664 8.47884 9.18779 8.28357 9.96399 8.28357V5.28357C8.71392 5.28357 7.50279 5.60252 6.61593 6.49825C5.73177 7.39126 5.41943 8.60595 5.41943 9.85864H8.41943ZM9.96399 8.28357H16.3075V5.28357H9.96399V8.28357ZM16.3075 8.28357C17.0837 8.28357 17.3903 8.47876 17.516 8.60628C17.6457 8.73796 17.8418 9.06091 17.8418 9.85864H20.8418C20.8418 8.60974 20.534 7.39515 19.6531 6.50095C18.7682 5.6026 17.5576 5.28357 16.3075 5.28357V8.28357ZM17.8418 9.85864V26.1197H20.8418V9.85864H17.8418Z" fill="#353473" mask="url(#path-2-inside-1_63_1574)"/>
<path d="M15.7273 12.8828H10.687C10.2695 12.8828 9.92334 12.5366 9.92334 12.1191C9.92334 11.7017 10.2695 11.3555 10.687 11.3555H15.7273C16.1447 11.3555 16.4909 11.7017 16.4909 12.1191C16.4909 12.5366 16.1447 12.8828 15.7273 12.8828Z" fill="#353473"/>
<path d="M15.7273 16.7012H10.687C10.2695 16.7012 9.92334 16.355 9.92334 15.9375C9.92334 15.52 10.2695 15.1738 10.687 15.1738H15.7273C16.1447 15.1738 16.4909 15.52 16.4909 15.9375C16.4909 16.355 16.1447 16.7012 15.7273 16.7012Z" fill="#353473"/>
<path d="M13.1816 26.8834C12.7642 26.8834 12.418 26.5372 12.418 26.1197V22.3013C12.418 21.8839 12.7642 21.5377 13.1816 21.5377C13.5991 21.5377 13.9453 21.8839 13.9453 22.3013V26.1197C13.9453 26.5372 13.5991 26.8834 13.1816 26.8834Z" fill="#353473"/>
<path d="M28.2006 25.356H25.8892V22.3013C26.8565 21.9857 27.5591 21.0795 27.5591 20.0103V17.9739C27.5591 16.64 26.4696 15.5505 25.1357 15.5505C23.8018 15.5505 22.7123 16.64 22.7123 17.9739V20.0103C22.7123 21.0693 23.4047 21.9653 24.3517 22.2911V25.356H5.79956C5.38209 25.356 5.03589 25.7022 5.03589 26.1197C5.03589 26.5372 5.38209 26.8834 5.79956 26.8834H25.0746C25.095 26.8834 25.1052 26.8936 25.1255 26.8936C25.1459 26.8936 25.1561 26.8834 25.1765 26.8834H28.2006C28.6181 26.8834 28.9643 26.5372 28.9643 26.1197C28.9643 25.7022 28.6181 25.356 28.2006 25.356Z" fill="#353473"/>
</svg>
