<svg width="18" height="18" viewBox="0 0 18 18" fill="none" xmlns="http://www.w3.org/2000/svg">
<path d="M16.1333 8.99971V9C16.1333 12.9332 12.9333 16.1333 9.00012 16.1333C7.94912 16.1327 6.91124 15.8999 5.9607 15.4514C5.14165 15.0651 4.40489 14.5268 3.78884 13.8667H5.33333C5.62789 13.8667 5.86667 13.6279 5.86667 13.3333C5.86667 13.0388 5.62789 12.8 5.33333 12.8H2.3434C2.22739 12.8 2.13333 12.894 2.13333 13.0101V16C2.13333 16.2946 2.37212 16.5333 2.66667 16.5333C2.96122 16.5333 3.2 16.2946 3.2 16V14.7963C3.89975 15.4964 4.72151 16.0651 5.62625 16.4736C6.68658 16.9522 7.83661 17.1999 8.99998 17.2C13.5218 17.2 17.2 13.5215 17.2 9C17.2 8.13427 17.0664 7.28506 16.8024 6.47059C16.7088 6.18197 16.3945 6.04415 16.1205 6.14586C15.8423 6.24912 15.709 6.55368 15.7958 6.82523C16.0203 7.52751 16.1344 8.2611 16.1333 8.99971ZM1.86667 9.00029V9C1.86667 5.06679 5.06679 1.86667 9 1.86667C10.0509 1.86711 11.0889 2.09987 12.0394 2.5483C12.8585 2.93471 13.5953 3.47302 14.2113 4.13333H12.6667C12.3721 4.13333 12.1333 4.37212 12.1333 4.66667C12.1333 4.96122 12.3721 5.2 12.6667 5.2H15.6566C15.7726 5.2 15.8667 5.10595 15.8667 4.98993V2C15.8667 1.70545 15.6279 1.46667 15.3333 1.46667C15.0388 1.46667 14.8 1.70545 14.8 2V3.20332C14.1003 2.50322 13.2785 1.93455 12.3738 1.52616C11.3134 1.04754 10.1634 0.800001 9 0.8C4.47854 0.8 0.8 4.47854 0.8 9C0.8 9.86573 0.933593 10.7149 1.19765 11.5294C1.29122 11.818 1.6055 11.9559 1.87952 11.8541C2.15768 11.7509 2.29097 11.4463 2.20416 11.1748C1.97965 10.4725 1.86559 9.7389 1.86667 9.00029Z" fill="#489975" stroke="#489975" stroke-width="0.4"/>
</svg>
